<svg width="78" height="17" viewBox="0 0 78 17" fill="none" xmlns="http://www.w3.org/2000/svg">
<path fill-rule="evenodd" clip-rule="evenodd" d="M0.158295 0V16.4957H2.93638V9.70593H7.02517C8.58146 9.70593 9.90912 9.2286 10.8516 8.36441C11.7968 7.4977 12.327 6.26661 12.327 4.81844C12.327 3.39134 11.7954 2.17709 10.8497 1.32254C9.90718 0.470831 8.58025 0 7.02517 0H0.158295ZM44.8511 4.05084C46.2432 4.05084 47.6777 4.65643 48.6867 5.63116V0H51.2346V16.4957H48.6867V15.1455C47.6777 16.1203 46.2432 16.7258 44.8511 16.7258C43.062 16.7258 41.5391 16.0953 40.4643 14.971C39.3907 13.8481 38.7898 12.2598 38.7898 10.3883C38.7898 8.51689 39.3907 6.92858 40.4643 5.80565C41.5391 4.68138 43.062 4.05084 44.8511 4.05084ZM55.8481 4.281H53.3002V16.4957H55.8481V9.3296C55.8481 8.41941 56.1483 7.68429 56.647 7.17813C57.1451 6.67245 57.8675 6.3686 58.7631 6.3686C59.6586 6.3686 60.381 6.67245 60.8791 7.17813C61.3778 7.68429 61.678 8.41941 61.678 9.3296V16.4957H64.2259V9.00737C64.2259 7.5421 63.7173 6.29535 62.8028 5.41544C61.8896 4.53671 60.5999 4.05084 59.0853 4.05084C57.9466 4.05084 56.7368 4.51211 55.8481 5.24911V4.281ZM71.7085 4.05084C73.0469 4.05084 74.4531 4.65735 75.4521 5.61648V4.281H78V16.4957H75.4521V15.1602C74.4531 16.1193 73.0469 16.7258 71.7085 16.7258C69.9408 16.7258 68.4402 16.0941 67.3829 14.9688C66.3275 13.8455 65.7393 12.2578 65.7393 10.3883C65.7393 8.51888 66.3275 6.93123 67.3829 5.80787C68.4402 4.68258 69.9408 4.05084 71.7085 4.05084ZM2.93638 7.15801V2.54792H7.02517C7.8164 2.54792 8.44539 2.78978 8.8726 3.18037C9.29708 3.56847 9.54887 4.12698 9.54887 4.81844C9.54887 5.53619 9.29472 6.11268 8.86941 6.51125C8.44208 6.91172 7.81432 7.15801 7.02517 7.15801H2.93638ZM18.4876 16.7258C20.2982 16.7258 21.8379 16.0963 22.9247 14.9725C24.0105 13.8497 24.6179 12.2608 24.6179 10.3883C24.6179 8.51588 24.0105 6.92702 22.9247 5.80419C21.8379 4.68037 20.2982 4.05084 18.4876 4.05084C16.6769 4.05084 15.1372 4.68037 14.0504 5.80419C12.9646 6.92702 12.3572 8.51588 12.3572 10.3883C12.3572 12.2608 12.9646 13.8497 14.0504 14.9725C15.1372 16.0963 16.6769 16.7258 18.4876 16.7258ZM18.4876 14.4081C17.4064 14.4081 16.5204 14.0079 15.9016 13.3221C15.2801 12.6332 14.9051 11.6296 14.9051 10.3883C14.9051 9.14705 15.2801 8.14344 15.9016 7.45456C16.5204 6.7688 17.4064 6.3686 18.4876 6.3686C19.5687 6.3686 20.4548 6.7688 21.0735 7.45456C21.695 8.14344 22.07 9.14705 22.07 10.3883C22.07 11.6296 21.695 12.6332 21.0735 13.3221C20.4548 14.0079 19.5687 14.4081 18.4876 14.4081ZM31.7038 16.7258C33.5145 16.7258 35.0542 16.0963 36.141 14.9725C37.2268 13.8497 37.8342 12.2608 37.8342 10.3883C37.8342 8.51588 37.2268 6.92702 36.141 5.80419C35.0542 4.68037 33.5145 4.05084 31.7038 4.05084C29.8932 4.05084 28.3534 4.68037 27.2667 5.80419C26.1809 6.92702 25.5735 8.51588 25.5735 10.3883C25.5735 12.2608 26.1809 13.8497 27.2667 14.9725C28.3534 16.0963 29.8932 16.7258 31.7038 16.7258ZM31.7038 14.4081C30.6227 14.4081 29.7366 14.0079 29.1179 13.3221C28.4964 12.6332 28.1214 11.6296 28.1214 10.3883C28.1214 9.14705 28.4964 8.14344 29.1179 7.45456C29.7366 6.7688 30.6227 6.3686 31.7038 6.3686C32.785 6.3686 33.671 6.7688 34.2898 7.45456C34.9113 8.14344 35.2863 9.14705 35.2863 10.3883C35.2863 11.6296 34.9113 12.6332 34.2898 13.3221C33.671 14.0079 32.785 14.4081 31.7038 14.4081ZM45.0352 14.4081C43.9161 14.4081 43.0003 14.0053 42.3624 13.3184C41.7225 12.6292 41.3377 11.6269 41.3377 10.3883C41.3377 9.14977 41.7225 8.14747 42.3624 7.45829C43.0003 6.77134 43.9161 6.3686 45.0352 6.3686C46.1416 6.3686 47.0454 6.77045 47.6749 7.45671C48.3068 8.14563 48.6867 9.14841 48.6867 10.3883C48.6867 11.6283 48.3068 12.631 47.6749 13.32C47.0454 14.0062 46.1416 14.4081 45.0352 14.4081ZM71.8927 14.4081C70.799 14.4081 69.9073 14.0072 69.2861 13.3216C68.6622 12.6329 68.2872 11.6296 68.2872 10.3883C68.2872 9.14706 68.6622 8.14378 69.2861 7.4551C69.9073 6.76952 70.799 6.3686 71.8927 6.3686C72.9735 6.3686 73.8533 6.76856 74.4661 7.45346C75.0821 8.14192 75.4521 9.14571 75.4521 10.3883C75.4521 11.631 75.0821 12.6348 74.4661 13.3232C73.8533 14.0081 72.9735 14.4081 71.8927 14.4081Z" fill="#5B47DA"/>
</svg>
